<svg width="56" height="56" viewBox="0 0 56 56" fill="none" xmlns="http://www.w3.org/2000/svg">
<path d="M49.0001 30.3276V43.5576C49.0001 48.2301 46.6726 51.3276 41.2301 51.3276H28.7876C23.3451 51.3276 21.0176 48.2126 21.0176 43.5576V30.3276C21.0176 25.6551 23.3451 22.5576 28.7876 22.5576H41.2301C46.6726 22.5576 49.0001 25.6726 49.0001 30.3276Z" fill="#FFCB09"/>
<path d="M19.8452 32.8126C19.4952 32.8126 19.1627 32.6726 18.9177 32.4276C18.7952 32.3051 18.6902 32.1651 18.6377 31.9901C18.5677 31.8326 18.5327 31.6751 18.5327 31.5001C18.5327 31.3251 18.5677 31.1501 18.6377 30.9926C18.6902 30.8351 18.7952 30.6951 18.9177 30.5726C19.4077 30.0826 20.2827 30.0826 20.7727 30.5726C21.0177 30.8176 21.1577 31.1501 21.1577 31.5001C21.1577 31.6751 21.1227 31.8326 21.0527 31.9901C20.9827 32.1651 20.8952 32.3051 20.7727 32.4276C20.5277 32.6726 20.1777 32.8126 19.8452 32.8126Z" fill="black"/>
<path d="M28.0001 32.813C27.8426 32.813 27.6676 32.778 27.5101 32.708C27.3526 32.638 27.1951 32.5505 27.0901 32.428C26.9676 32.3055 26.8626 32.1655 26.7926 31.9905C26.7401 31.833 26.7051 31.6755 26.7051 31.5005C26.7051 31.3255 26.7401 31.1505 26.7926 30.993C26.8626 30.8355 26.9676 30.6955 27.0901 30.573C27.1951 30.4505 27.3526 30.3455 27.5101 30.2755C27.8251 30.153 28.1926 30.153 28.5076 30.2755C28.6651 30.3455 28.8226 30.4505 28.9451 30.573C29.0676 30.6955 29.1551 30.8355 29.2251 30.993C29.2951 31.1505 29.3126 31.3255 29.3126 31.5005C29.3126 31.6755 29.2951 31.833 29.2251 31.9905C29.1551 32.1655 29.0676 32.3055 28.9451 32.428C28.8226 32.5505 28.6651 32.638 28.5076 32.708C28.3501 32.778 28.1751 32.813 28.0001 32.813Z" fill="black"/>
<path d="M36.1724 32.8126C35.8399 32.8126 35.4899 32.6726 35.2449 32.4276C35.1224 32.3051 35.0349 32.1651 34.9649 31.9901C34.8949 31.8326 34.8599 31.6751 34.8599 31.5001C34.8599 31.1501 34.9999 30.8176 35.2449 30.5726C35.7349 30.0826 36.6099 30.0826 37.0999 30.5726C37.2224 30.6951 37.3274 30.8351 37.3799 30.9926C37.4499 31.1501 37.4849 31.3251 37.4849 31.5001C37.4849 31.6751 37.4499 31.8326 37.3799 31.9901C37.3274 32.1651 37.2224 32.3051 37.0999 32.4276C36.8549 32.6726 36.5224 32.8126 36.1724 32.8126Z" fill="black"/>
<path d="M19.8452 40.9678C19.6702 40.9678 19.4952 40.9328 19.3377 40.8803C19.1802 40.8103 19.0402 40.7053 18.9177 40.5828C18.6727 40.3378 18.5327 40.0228 18.5327 39.6553C18.5327 39.2878 18.6727 38.9728 18.9177 38.7278C19.0402 38.6053 19.1802 38.5178 19.3377 38.4478C19.6527 38.3078 20.0202 38.3078 20.3527 38.4478C20.5102 38.5178 20.6502 38.6053 20.7727 38.7278C21.0177 38.9728 21.1577 39.3053 21.1577 39.6553C21.1577 40.0053 21.0177 40.3378 20.7727 40.5828C20.6502 40.7053 20.5102 40.8103 20.3527 40.8803C20.1952 40.9328 20.0202 40.9678 19.8452 40.9678Z" fill="black"/>
<path d="M28 40.9682C27.65 40.9682 27.3175 40.8457 27.0725 40.5832C26.81 40.3382 26.6875 40.0057 26.6875 39.6557C26.6875 39.3057 26.81 38.9907 27.0725 38.7282C27.44 38.3607 28.0175 38.2557 28.49 38.4482C28.6475 38.5182 28.7875 38.6057 28.91 38.7282C29.1725 38.9732 29.295 39.3057 29.295 39.6557C29.295 40.0057 29.1725 40.3382 28.91 40.5832C28.7875 40.7057 28.6475 40.8107 28.49 40.8807C28.3325 40.9332 28.175 40.9682 28 40.9682Z" fill="black"/>
<path d="M36.1724 40.9682C35.8224 40.9682 35.4899 40.8457 35.2449 40.5832C34.9999 40.3382 34.8599 40.0057 34.8599 39.6557C34.8599 39.3057 34.9999 38.9907 35.2449 38.7282C35.6299 38.3607 36.1899 38.2557 36.6799 38.4482C36.8374 38.5182 36.9774 38.6057 37.0999 38.7282C37.3449 38.9732 37.4849 39.3057 37.4849 39.6557C37.4849 40.0057 37.3449 40.3382 37.0999 40.5832C36.8549 40.8457 36.5224 40.9682 36.1724 40.9682Z" fill="black"/>
<path d="M18.6724 12.5469C18.1824 12.5469 17.7974 12.1619 17.7974 11.6719V4.67188C17.7974 4.18187 18.1824 3.79688 18.6724 3.79688C19.1624 3.79688 19.5474 4.18187 19.5474 4.67188V11.6719C19.5474 12.1619 19.1624 12.5469 18.6724 12.5469Z" fill="black"/>
<path d="M37.3276 12.5469C36.8376 12.5469 36.4526 12.1619 36.4526 11.6719V4.67188C36.4526 4.18187 36.8376 3.79688 37.3276 3.79688C37.8176 3.79688 38.2026 4.18187 38.2026 4.67188V11.6719C38.2026 12.1619 37.8176 12.5469 37.3276 12.5469Z" fill="black"/>
<path d="M47.8274 22.0674H8.17236C7.68236 22.0674 7.29736 21.6824 7.29736 21.1924C7.29736 20.7024 7.68236 20.3174 8.17236 20.3174H47.8274C48.3174 20.3174 48.7024 20.7024 48.7024 21.1924C48.7024 21.6824 48.3174 22.0674 47.8274 22.0674Z" fill="black"/>
<path d="M37.3275 52.2028H18.6725C10.5875 52.2028 6.125 47.7578 6.125 39.6553V19.8278C6.125 11.7428 10.57 7.28027 18.6725 7.28027H37.345C45.43 7.28027 49.8925 11.7253 49.8925 19.8278V39.6553C49.8925 47.7403 45.4475 52.2028 37.345 52.2028H37.3275ZM18.6725 9.04777C11.515 9.04777 7.875 12.6878 7.875 19.8453V39.6728C7.875 46.8303 11.515 50.4703 18.6725 50.4703H37.345C44.5025 50.4703 48.1425 46.8303 48.1425 39.6728V19.8278C48.1425 12.6703 44.5025 9.03027 37.345 9.03027H18.6725V9.04777Z" fill="black"/>
</svg>
