<?xml version="1.0" encoding="UTF-8"?><svg id="Layer_1" xmlns="http://www.w3.org/2000/svg" viewBox="0 0 56 56"><g><path d="M47.05,31.73c0,8.38-6.79,15.17-15.17,15.17s-15.17-6.79-15.17-15.17,6.79-15.17,15.17-15.17,15.17,6.79,15.17,15.17Z" fill="#ffcc0b"/><path d="M28,51.62c-1.21,0-2.34-.47-3.19-1.32l-3.47-3.47c-.42-.42-1.36-.81-1.96-.81h-4.9c-2.49,0-4.51-2.03-4.51-4.52v-4.9c0-.6-.39-1.53-.81-1.95l-3.47-3.47c-1.76-1.76-1.76-4.62,0-6.38l3.47-3.47c.42-.42,.81-1.36,.81-1.96v-4.9c0-2.49,2.03-4.51,4.51-4.51h4.9c.6,0,1.53-.39,1.96-.81l3.47-3.47c1.7-1.7,4.69-1.7,6.38,0l3.47,3.47c.43,.42,1.36,.81,1.96,.81h4.9c2.49,0,4.51,2.03,4.51,4.51v4.9c0,.6,.39,1.53,.81,1.96l3.47,3.47c1.76,1.76,1.76,4.63,0,6.38l-3.47,3.47c-.42,.42-.81,1.36-.81,1.95v4.9c0,2.49-2.03,4.52-4.51,4.52h-4.9c-.6,0-1.53,.39-1.96,.81l-3.47,3.47c-.85,.85-1.98,1.32-3.19,1.32ZM14.48,11.72c-1.52,0-2.76,1.24-2.76,2.76v4.9c0,1.07-.57,2.44-1.32,3.19l-3.47,3.47c-1.08,1.08-1.08,2.83,0,3.91l3.47,3.47c.75,.75,1.32,2.13,1.32,3.19v4.9c0,1.52,1.24,2.77,2.76,2.77h4.9c1.06,0,2.44,.57,3.19,1.32l3.47,3.47c1.08,1.08,2.83,1.08,3.91,0l3.47-3.47c.76-.75,2.13-1.32,3.19-1.32h4.9c1.52,0,2.76-1.24,2.76-2.77v-4.9c0-1.06,.57-2.44,1.32-3.19l3.47-3.47c1.08-1.08,1.08-2.83,0-3.91l-3.47-3.47c-.75-.75-1.32-2.13-1.32-3.19v-4.9c0-1.52-1.24-2.76-2.76-2.76h-4.9c-1.06,0-2.44-.57-3.19-1.32l-3.47-3.47c-1.08-1.08-2.83-1.08-3.91,0l-3.47,3.47c-.76,.75-2.13,1.32-3.19,1.32h-4.9Z" fill="#010101"/><path d="M34.83,36.14h-.01c-.72,0-1.31-.59-1.31-1.31s.59-1.31,1.31-1.31,1.32,.59,1.32,1.31-.58,1.31-1.31,1.31Z" fill="#010101"/><path d="M21.19,22.49h-.01c-.72,0-1.31-.59-1.31-1.31s.59-1.31,1.31-1.31,1.32,.59,1.32,1.31-.58,1.31-1.31,1.31Z" fill="#010101"/><path d="M21.17,35.7c-.22,0-.45-.09-.62-.26-.34-.34-.34-.9,0-1.24l13.65-13.65c.34-.34,.9-.34,1.24,0s.34,.9,0,1.24l-13.65,13.65c-.17,.17-.39,.26-.62,.26Z" fill="#010101"/></g><g opacity="0"><rect width="56" height="56" fill="none"/></g></svg>